<svg xmlns="http://www.w3.org/2000/svg" width="1200" height="630" viewBox="0 0 1200 630"><defs><linearGradient id="bg" x1="0" x2="1" y1="0" y2="1"><stop offset="0%" stop-color="#eef8ff"/><stop offset="100%" stop-color="#fff6e9"/></linearGradient></defs><rect width="1200" height="630" rx="32" fill="url(#bg)"/><text x="84" y="132" font-size="62" font-weight="800" font-family="Malgun Gothic, Apple SD Gothic Neo, sans-serif" fill="#23374a">써큘레이터 TOP 3</text><text x="86" y="184" font-size="28" font-family="Malgun Gothic, Apple SD Gothic Neo, sans-serif" fill="#607789">거실 · 원룸 · 책상 바람 순환 비교</text><g transform="translate(110 238)"><circle cx="120" cy="112" r="76" fill="#78b8ff"/><circle cx="120" cy="112" r="22" fill="#fff"/><path d="M120 42c28 0 50 22 50 50c-28 10-48 10-72 0c0-28 22-50 22-50Z" fill="#fff"/><path d="M182 134c0 28-22 50-50 50c-10-28-10-48 0-72c28 0 50 22 50 22Z" fill="#fff"/><path d="M58 134c0-28 22-50 50-50c10 28 10 48 0 72c-28 0-50-22-50-22Z" fill="#fff"/><rect x="108" y="192" width="24" height="70" rx="12" fill="#78b8ff"/><rect x="72" y="256" width="96" height="20" rx="10" fill="#d7ebff"/></g><g transform="translate(464 222)"><rect width="256" height="242" rx="28" fill="#fff8ed" stroke="#edd9b2"/><circle cx="128" cy="84" r="54" fill="#f1be67"/><circle cx="128" cy="84" r="18" fill="#fff"/><path d="M128 34c18 0 34 16 34 34c-20 8-38 8-54 0c0-18 16-34 20-34Z" fill="#fff"/><path d="M170 104c0 20-16 38-34 38c-8-20-8-38 0-54c18 0 34 16 34 16Z" fill="#fff"/><path d="M86 104c0-20 16-38 34-38c8 20 8 38 0 54c-18 0-34-16-34-16Z" fill="#fff"/><rect x="116" y="136" width="24" height="32" rx="10" fill="#f1be67"/><rect x="88" y="170" width="80" height="26" rx="13" fill="#ffe7b7"/><text x="128" y="224" text-anchor="middle" font-size="22" font-weight="700" font-family="Malgun Gothic, Apple SD Gothic Neo, sans-serif" fill="#76511a">2WAY 무난형</text></g><g transform="translate(828 230)"><rect width="228" height="224" rx="28" fill="#f6fbf8" stroke="#d6eadf"/><circle cx="114" cy="84" r="48" fill="#4fc7a4"/><circle cx="114" cy="84" r="16" fill="#fff"/><path d="M114 40c16 0 30 14 30 30c-18 6-34 6-48 0c0-16 14-30 18-30Z" fill="#fff"/><path d="M152 102c0 18-14 34-30 34c-6-18-6-34 0-48c16 0 30 14 30 14Z" fill="#fff"/><path d="M76 102c0-18 14-34 30-34c6 18 6 34 0 48c-16 0-30-14-30-14Z" fill="#fff"/><rect x="106" y="132" width="16" height="48" rx="8" fill="#4fc7a4"/><rect x="94" y="178" width="40" height="12" rx="6" fill="#caeee4"/><text x="114" y="214" text-anchor="middle" font-size="22" font-weight="700" font-family="Malgun Gothic, Apple SD Gothic Neo, sans-serif" fill="#2f6755">탁상형</text></g></svg>
