<svg xmlns="http://www.w3.org/2000/svg" width="1200" height="630" viewBox="0 0 1200 630"><defs><linearGradient id="bg" x1="0" x2="1" y1="0" y2="1"><stop offset="0%" stop-color="#eef8ff"/><stop offset="100%" stop-color="#fff5e9"/></linearGradient></defs><rect width="1200" height="630" rx="32" fill="url(#bg)"/><text x="84" y="132" font-size="58" font-weight="800" font-family="Malgun Gothic, Apple SD Gothic Neo, sans-serif" fill="#24384b">욕실 곰팡이 제거제 TOP 3</text><text x="86" y="184" font-size="28" font-family="Malgun Gothic, Apple SD Gothic Neo, sans-serif" fill="#607789">뿌리는형 · 젤형 · 기본형 비교</text><g transform="translate(146 246)"><rect width="160" height="220" rx="26" fill="#ffffff" stroke="#d3dfeb"/><rect x="40" y="20" width="80" height="52" rx="16" fill="#76b5ff"/><path d="M80 96h34v94H46c0-36 18-70 34-94Z" fill="#eef7ff"/></g><g transform="translate(488 236)"><rect width="180" height="230" rx="28" fill="#ffffff" stroke="#e6d3b6"/><rect x="48" y="18" width="84" height="48" rx="16" fill="#f0c770"/><path d="M48 172c30-18 58-18 84 0c26 18 54 18 82 0" fill="none" stroke="#d0ba95" stroke-width="12" stroke-linecap="round"/></g><g transform="translate(842 246)"><rect width="160" height="220" rx="26" fill="#ffffff" stroke="#d6dfd8"/><rect x="44" y="20" width="72" height="50" rx="16" fill="#8dc793"/><path d="M42 150h78" stroke="#b7d7bb" stroke-width="12" stroke-linecap="round"/><path d="M42 182h56" stroke="#d2e5d4" stroke-width="12" stroke-linecap="round"/></g></svg>
