<svg xmlns="http://www.w3.org/2000/svg" width="1200" height="630" viewBox="0 0 1200 630"><defs><linearGradient id="bg" x1="0" x2="1" y1="0" y2="1"><stop offset="0%" stop-color="#eef9ff"/><stop offset="100%" stop-color="#fff7ec"/></linearGradient></defs><rect width="1200" height="630" rx="32" fill="url(#bg)"/><text x="84" y="132" font-size="58" font-weight="800" font-family="Malgun Gothic, Apple SD Gothic Neo, sans-serif" fill="#24384b">냉감 매트리스 커버 TOP 3</text><text x="86" y="184" font-size="28" font-family="Malgun Gothic, Apple SD Gothic Neo, sans-serif" fill="#607789">기본형 · 올인원형 · 방수 겸용형 비교</text><g transform="translate(112 258)"><rect width="280" height="170" rx="28" fill="#ddeaf6"/><rect x="18" y="18" width="244" height="134" rx="22" fill="#f7fbff"/><path d="M48 58c42 14 82 14 120 0c34-14 68-14 102 0" fill="none" stroke="#9bc7ef" stroke-width="12" stroke-linecap="round"/></g><g transform="translate(460 238)"><rect width="300" height="190" rx="30" fill="#fff3da"/><rect x="24" y="24" width="252" height="142" rx="24" fill="#fffdf8"/><rect x="44" y="160" width="212" height="16" rx="8" fill="#f2d498"/></g><g transform="translate(840 238)"><rect width="260" height="190" rx="30" fill="#e9f7f5"/><rect x="22" y="22" width="216" height="146" rx="24" fill="#ffffff"/><path d="M58 60c22 18 44 18 66 0c22-18 44-18 66 0" fill="none" stroke="#6fcdb8" stroke-width="10" stroke-linecap="round"/><path d="M60 132h140" stroke="#9edfd1" stroke-width="12" stroke-linecap="round"/></g></svg>
