<svg xmlns="http://www.w3.org/2000/svg" width="1200" height="630" viewBox="0 0 1200 630"><defs><linearGradient id="bg" x1="0" x2="1" y1="0" y2="1"><stop offset="0%" stop-color="#eef9ff"/><stop offset="100%" stop-color="#edf9f2"/></linearGradient></defs><rect width="1200" height="630" rx="32" fill="url(#bg)"/><text x="84" y="132" font-size="62" font-weight="800" font-family="Malgun Gothic, Apple SD Gothic Neo, sans-serif" fill="#22384b">아이스박스 TOP 3</text><text x="86" y="184" font-size="28" font-family="Malgun Gothic, Apple SD Gothic Neo, sans-serif" fill="#607789">보냉백 · 테이블형 · 기본 하드형 비교</text><g transform="translate(116 258)"><rect width="260" height="180" rx="28" fill="#9dbf98"/><rect x="28" y="34" width="204" height="116" rx="20" fill="#5b7b57"/><rect x="92" y="-8" width="76" height="44" rx="20" fill="#d8ead4"/></g><g transform="translate(476 236)"><rect width="268" height="208" rx="28" fill="#ffffff" stroke="#d8e3eb"/><rect x="28" y="56" width="212" height="116" rx="18" fill="#f1f6fb"/><rect x="80" y="22" width="108" height="30" rx="12" fill="#9fc0df"/><rect x="58" y="174" width="152" height="18" rx="9" fill="#cfe0ef"/><text x="134" y="150" text-anchor="middle" font-size="26" font-weight="700" font-family="Malgun Gothic, Apple SD Gothic Neo, sans-serif" fill="#4e6a83">TABLE</text></g><g transform="translate(832 250)"><rect width="240" height="188" rx="28" fill="#ffe9b8"/><rect x="24" y="38" width="192" height="118" rx="18" fill="#efc971"/><rect x="70" y="12" width="100" height="30" rx="12" fill="#c89c35"/></g></svg>
