<svg xmlns="http://www.w3.org/2000/svg" width="1200" height="630" viewBox="0 0 1200 630" role="img" aria-labelledby="title desc">
  <title id="title">프리미엄 멀티비타민 가격비교 TOP 3</title>
  <desc id="desc">프리미엄 멀티비타민 가격비교 TOP 3 검색 썸네일</desc>
  <defs>
    <linearGradient id="bg" x1="0" y1="0" x2="1" y2="1">
      <stop offset="0%" stop-color="#fff5d9"/>
      <stop offset="55%" stop-color="#ffe4a6"/>
      <stop offset="100%" stop-color="#fffaf0"/>
    </linearGradient>
    <linearGradient id="panel" x1="0" y1="0" x2="1" y2="1">
      <stop offset="0%" stop-color="#fffefb"/>
      <stop offset="100%" stop-color="#fff1c7"/>
    </linearGradient>
    <linearGradient id="pill" x1="0" y1="0" x2="1" y2="1">
      <stop offset="0%" stop-color="#f59e0b"/>
      <stop offset="100%" stop-color="#b45309"/>
    </linearGradient>
    <filter id="shadow" x="-20%" y="-20%" width="140%" height="140%">
      <feDropShadow dx="0" dy="16" stdDeviation="18" flood-color="#b0892d" flood-opacity="0.18"/>
    </filter>
  </defs>
  <rect width="1200" height="630" rx="36" fill="url(#bg)"/>
  <circle cx="1020" cy="112" r="92" fill="#fff0b8" opacity="0.55"/>
  <circle cx="112" cy="530" r="74" fill="#ffe5a1" opacity="0.46"/>
  <g filter="url(#shadow)">
    <rect x="56" y="54" width="1088" height="522" rx="34" fill="url(#panel)"/>
  </g>
  <text x="86" y="138" font-size="60" font-weight="800" fill="#7c4a03" font-family="Malgun Gothic, Apple SD Gothic Neo, sans-serif">프리미엄 멀티비타민</text>
  <text x="86" y="204" font-size="56" font-weight="900" fill="#111827" font-family="Malgun Gothic, Apple SD Gothic Neo, sans-serif">가격비교 TOP 3</text>
  <g>
    <rect x="86" y="246" width="188" height="52" rx="26" fill="#fff6da"/>
    <text x="180" y="280" text-anchor="middle" font-size="24" font-weight="800" fill="#8b5a12" font-family="Malgun Gothic, Apple SD Gothic Neo, sans-serif">골드</text>
    <rect x="290" y="246" width="188" height="52" rx="26" fill="#fff6da"/>
    <text x="384" y="280" text-anchor="middle" font-size="24" font-weight="800" fill="#8b5a12" font-family="Malgun Gothic, Apple SD Gothic Neo, sans-serif">프리미엄</text>
    <rect x="494" y="246" width="220" height="52" rx="26" fill="#fff6da"/>
    <text x="604" y="280" text-anchor="middle" font-size="24" font-weight="800" fill="#8b5a12" font-family="Malgun Gothic, Apple SD Gothic Neo, sans-serif">90정 · 장기복용</text>
  </g>
  <g transform="translate(774,112)">
    <rect x="0" y="0" width="130" height="194" rx="26" fill="#fffdf7" stroke="#f6d47a" stroke-width="4"/>
    <rect x="24" y="26" width="82" height="28" rx="14" fill="#ffefbb"/>
    <rect x="18" y="72" width="94" height="76" rx="18" fill="#fff6de"/>
    <text x="65" y="107" text-anchor="middle" font-size="18" font-weight="800" fill="#7c4a03" font-family="Malgun Gothic, Apple SD Gothic Neo, sans-serif">골드형</text>
    <text x="65" y="131" text-anchor="middle" font-size="18" font-weight="800" fill="#7c4a03" font-family="Malgun Gothic, Apple SD Gothic Neo, sans-serif">기준 제품</text>
    <rect x="34" y="160" width="62" height="16" rx="8" fill="url(#pill)"/>
  </g>
  <g transform="translate(932,90)">
    <rect x="0" y="0" width="144" height="216" rx="28" fill="#fffdf7" stroke="#caa85f" stroke-width="4"/>
    <rect x="28" y="28" width="88" height="28" rx="14" fill="#f6f0c7"/>
    <rect x="22" y="78" width="100" height="84" rx="20" fill="#f7fafc"/>
    <text x="72" y="112" text-anchor="middle" font-size="17" font-weight="900" fill="#374151" font-family="Malgun Gothic, Apple SD Gothic Neo, sans-serif">투퍼데이</text>
    <text x="72" y="137" text-anchor="middle" font-size="17" font-weight="900" fill="#374151" font-family="Malgun Gothic, Apple SD Gothic Neo, sans-serif">고함량형</text>
    <rect x="42" y="176" width="60" height="18" rx="9" fill="#1f2937"/>
  </g>
  <g transform="translate(828,322)">
    <rect x="0" y="0" width="184" height="208" rx="30" fill="#fffdf7" stroke="#d5a86d" stroke-width="4"/>
    <rect x="38" y="26" width="108" height="30" rx="15" fill="#eef2f7"/>
    <rect x="30" y="80" width="124" height="82" rx="20" fill="#fff4dc"/>
    <text x="92" y="114" text-anchor="middle" font-size="19" font-weight="900" fill="#7c4a03" font-family="Malgun Gothic, Apple SD Gothic Neo, sans-serif">센트룸 맨</text>
    <text x="92" y="141" text-anchor="middle" font-size="19" font-weight="900" fill="#7c4a03" font-family="Malgun Gothic, Apple SD Gothic Neo, sans-serif">장기복용형</text>
    <rect x="56" y="176" width="72" height="18" rx="9" fill="#c2410c"/>
  </g>
  <g transform="translate(88,352)">
    <rect x="0" y="0" width="202" height="140" rx="24" fill="#fffdf8" stroke="#f1dfaf"/>
    <text x="101" y="42" text-anchor="middle" font-size="20" font-weight="800" fill="#6b7280" font-family="Malgun Gothic, Apple SD Gothic Neo, sans-serif">총가격</text>
    <text x="101" y="94" text-anchor="middle" font-size="34" font-weight="900" fill="#111827" font-family="Malgun Gothic, Apple SD Gothic Neo, sans-serif">11,900원부터</text>
  </g>
  <g transform="translate(314,352)">
    <rect x="0" y="0" width="202" height="140" rx="24" fill="#fffdf8" stroke="#f1dfaf"/>
    <text x="101" y="42" text-anchor="middle" font-size="20" font-weight="800" fill="#6b7280" font-family="Malgun Gothic, Apple SD Gothic Neo, sans-serif">1정당 가격</text>
    <text x="101" y="94" text-anchor="middle" font-size="34" font-weight="900" fill="#111827" font-family="Malgun Gothic, Apple SD Gothic Neo, sans-serif">132원 ~ 200원</text>
  </g>
  <g transform="translate(540,352)">
    <rect x="0" y="0" width="218" height="140" rx="24" fill="#fffdf8" stroke="#f1dfaf"/>
    <text x="109" y="42" text-anchor="middle" font-size="20" font-weight="800" fill="#6b7280" font-family="Malgun Gothic, Apple SD Gothic Neo, sans-serif">하루 기준 비용</text>
    <text x="109" y="94" text-anchor="middle" font-size="34" font-weight="900" fill="#111827" font-family="Malgun Gothic, Apple SD Gothic Neo, sans-serif">132원 ~ 401원</text>
  </g>
</svg>
